<?xml version="1.0" standalone="no"?>
<!DOCTYPE svg PUBLIC "-//W3C//DTD SVG 1.1//EN" "http://www.w3.org/Graphics/SVG/1.1/DTD/svg11.dtd"><svg t="1744016722122"
    class="icon" viewBox="0 0 1024 1024" version="1.1" xmlns="http://www.w3.org/2000/svg" p-id="3604"
    xmlns:xlink="http://www.w3.org/1999/xlink" width="200" height="200">
    <g transform="scale(1.5)" transform-origin="50% 50%">

        <path
            d="M249.2416 750.455467h458.069333v29.0816c0 8.6016 7.3728 0.6144 7.3728 0.6144l62.122667-52.6336a5.802667 5.802667 0 0 0 0.546133-8.669867c-6.144-6.075733-64.1024-50.9952-64.1024-50.9952s-7.7824-7.850667-7.7824 2.525867v26.8288H248.558933s-3.754667 0-3.6864 4.7104v43.076266c0 6.621867 4.369067 5.461333 4.369067 5.461334z m529.885867 54.613333c0-4.778667-3.6864-4.7104-3.6864-4.7104H318.464v-26.8288c0-10.376533-7.714133-2.525867-7.714133-2.525867s-57.9584 44.8512-64.1024 50.9952a5.802667 5.802667 0 0 0 0.546133 8.669867l62.0544 52.701867s7.3728 7.7824 7.3728-0.682667V853.333333h458.1376s4.369067 1.2288 4.369067-5.461333z"
            fill="#F5ED62" p-id="3606"></path>
        <path
            d="M716.3904 332.936533c-9.489067-79.598933-47.786667-137.6256-95.573333-137.489066l-219.067734 0.477866c-47.377067 0-85.674667 58.299733-94.754133 137.966934-33.314133 19.797333-50.449067 60.142933-50.3808 106.837333 0 34.679467 9.762133 65.7408 28.330667 87.586133v77.4144h86.084266v-45.533866L653.312 559.786667v45.329066h86.084267V527.701333C757.76 505.173333 767.317333 474.180267 767.249067 439.5008c0-46.557867-17.476267-86.903467-50.858667-106.564267zM401.954133 225.28H621.226667c30.5152 0 57.207467 40.96 67.310933 97.348267A99.396267 99.396267 0 0 0 673.792 320.853333v-0.4096H568.661333l-211.626666 0.546134a111.752533 111.752533 0 0 0-21.845334 2.184533C344.8832 266.990933 371.5072 225.28 401.954133 225.28z m-56.866133 253.952c-18.8416 0-34.133333-17.339733-34.133333-38.843733s15.086933-38.912 34.133333-38.980267 34.133333 17.339733 34.133333 38.843733-15.1552 38.912-34.133333 38.980267z m265.762133-7.304533H413.2864c-30.788267 0-31.470933-53.0432 0-53.111467l197.563733-0.477867c28.808533 0 28.945067 53.248 0 53.384534z m68.266667 6.826666c-18.8416 0-34.133333-17.271467-34.133333-38.775466s15.1552-38.980267 34.133333-39.048534 34.133333 17.339733 34.133333 38.843734-15.1552 38.980267-34.133333 38.980266z"
            fill="#F5ED62" p-id="3607"></path>
    </g>
</svg>