<?xml version="1.0" standalone="no"?>
<!DOCTYPE svg PUBLIC "-//W3C//DTD SVG 1.1//EN" "http://www.w3.org/Graphics/SVG/1.1/DTD/svg11.dtd"><svg t="1744016757012"
    class="icon" viewBox="0 0 1024 1024" version="1.1" xmlns="http://www.w3.org/2000/svg" p-id="4623"
    xmlns:xlink="http://www.w3.org/1999/xlink" width="200" height="200">
    <g transform="scale(1.3)" transform-origin="50% 50%">

        <path
            d="M521.762133 270.472533a71.338667 71.338667 0 0 1-29.0816-6.007466 77.6192 77.6192 0 0 1-23.825066-16.110934 76.049067 76.049067 0 0 1-16.110934-23.825066 73.591467 73.591467 0 0 1 0-58.231467 75.093333 75.093333 0 0 1 16.110934-23.7568 76.5952 76.5952 0 0 1 23.825066-16.1792 73.386667 73.386667 0 0 1 58.1632 0 77.4144 77.4144 0 0 1 23.825067 16.1792 73.386667 73.386667 0 0 1 15.906133 23.7568 75.093333 75.093333 0 0 1-15.906133 81.92 78.4384 78.4384 0 0 1-23.825067 16.110933 71.338667 71.338667 0 0 1-29.0816 6.007467z m106.769067 67.3792a88.746667 88.746667 0 0 1 21.435733 22.3232 46.4896 46.4896 0 0 1 8.3968 25.736534v47.786666a13.653333 13.653333 0 0 1-9.352533 12.4928A49.220267 49.220267 0 0 1 628.053333 450.56a50.858667 50.858667 0 0 1-20.48-4.027733 13.653333 13.653333 0 0 1-9.4208-13.243734v-20.48a13.653333 13.653333 0 0 0-4.232533-10.786133 60.142933 60.142933 0 0 0-8.669867-6.075733 10.376533 10.376533 0 0 0-11.0592 2.184533 18.158933 18.158933 0 0 0-6.280533 15.633067v126.976a33.1776 33.1776 0 0 0 7.714133 21.162666 99.874133 99.874133 0 0 0 18.773334 17.8176 128.955733 128.955733 0 0 1 16.384 13.653334l15.837866 15.906133a10.308267 10.308267 0 0 1 2.184534 8.874667 38.980267 38.980267 0 0 1-4.096 12.765866 87.176533 87.176533 0 0 1-8.3968 13.653334 40.96 40.96 0 0 1-11.332267 10.581333 23.825067 23.825067 0 0 1-12.765867 3.8912 16.657067 16.657067 0 0 1-11.946666-6.621867l-13.653334-14.677333L556.6464 628.053333c-2.730667-2.935467-5.5296-5.597867-8.3968-8.192s-6.417067-6.075733-10.6496-10.581333a107.9296 107.9296 0 0 1-21.367467-32.017067 92.296533 92.296533 0 0 1-8.874666-38.7072v-39.1168c-3.8912 4.846933-6.826667 8.669867-9.898667 11.537067A67.106133 67.106133 0 0 0 488.106667 525.653333a65.7408 65.7408 0 0 0-3.8912 10.103467c-1.2288 4.164267-2.4576 8.465067-3.618134 12.970667s-1.979733 9.0112-2.594133 13.653333a77.4144 77.4144 0 0 0-0.955733 11.0592v39.936a14.5408 14.5408 0 0 1-9.4208 13.653333 44.168533 44.168533 0 0 1-20.48 4.369067 46.08 46.08 0 0 1-20.48-5.3248 16.247467 16.247467 0 0 1-9.352534-15.1552v-34.952533a89.4976 89.4976 0 0 1 5.7344-33.245867c3.8912-9.557333 8.192-19.8656 13.038934-30.788267 6.417067-14.7456 11.127467-26.555733 14.1312-35.566933s5.393067-15.223467 6.826666-18.773333a50.107733 50.107733 0 0 0 4.778667-19.729067v-15.36a100.829867 100.829867 0 0 0-8.874667 6.212267 79.872 79.872 0 0 0-9.898666 10.581333 29.832533 29.832533 0 0 1-12.970667 9.4208 70.8608 70.8608 0 0 1-20.48 2.184533h-31.197867a18.432 18.432 0 0 1-17.066666-9.4208 37.888 37.888 0 0 1-5.3248-20.48 40.96 40.96 0 0 1 6.007466-20.48 18.705067 18.705067 0 0 1 16.861867-9.352533h28.8768a25.668267 25.668267 0 0 0 9.352533-1.4336 22.050133 22.050133 0 0 0 6.826667-4.369067c2.048-1.911467 4.3008-4.164267 6.826667-6.826666s5.3248-5.461333 8.874666-8.669867a73.659733 73.659733 0 0 0 13.653334-17.066667 483.1232 483.1232 0 0 0 13.243733-22.869333q7.168-13.653333 13.653333-28.8768l18.773334 0.955733c5.12 0 10.308267 0.546133 15.633066 0.750934h25.258667c4.5056 0 8.8064-0.4096 12.970667-0.750934l14.882133-0.955733c8.669867 5.461333 16.9984 10.4448 25.053867 14.882133 6.826667 4.232533 13.653333 8.192 20.48 12.0832a153.736533 153.736533 0 0 1 15.36 9.6256zM244.462933 750.455467h458.069334v29.0816c0 8.6016 7.3728 0.6144 7.3728 0.6144l62.122666-52.6336a5.802667 5.802667 0 0 0 0.477867-8.669867c-6.075733-6.075733-64.034133-50.9952-64.034133-50.9952s-7.7824-7.850667-7.7824 2.525867v26.8288H243.780267s-3.754667 0-3.754667 4.7104v43.076266c0 6.621867 4.437333 5.461333 4.437333 5.461334z m529.885867 54.613333c0-4.778667-3.6864-4.7104-3.6864-4.7104H314.026667v-26.8288c0-10.376533-7.714133-2.525867-7.714134-2.525867s-57.9584 44.8512-64.1024 50.9952a5.802667 5.802667 0 0 0 0.546134 8.669867l62.0544 52.701867s7.3728 7.7824 7.3728-0.682667v-29.0816h458.069333s4.437333 1.2288 4.437333-5.461333z"
            fill="#F5ED62" p-id="4625"></path>
    </g>
</svg>