<svg xmlns="http://www.w3.org/2000/svg" xmlns:xlink="http://www.w3.org/1999/xlink" width="39" height="39.00018310546875" viewBox="0 0 39 39.00018310546875" fill="none">
<path d="M32.3019 21.0002C32.3219 21.0002 32.342 21.0006 32.3621 21.0014C32.3823 21.0022 32.4023 21.0033 32.4224 21.0048C32.4424 21.0064 32.4624 21.0083 32.4824 21.0106C32.5024 21.0129 32.5223 21.0156 32.5422 21.0186C32.562 21.0217 32.5818 21.0251 32.6016 21.0289C32.6213 21.0327 32.6409 21.0368 32.6605 21.0414C32.6801 21.0459 32.6995 21.0508 32.7188 21.0561C32.7382 21.0614 32.7575 21.067 32.7766 21.073C32.7957 21.079 32.8148 21.0854 32.8336 21.0921C32.8525 21.0988 32.8712 21.1059 32.8898 21.1133C32.9084 21.1208 32.9269 21.1286 32.9451 21.1367C32.9634 21.1448 32.9815 21.1533 32.9995 21.1621C33.0174 21.171 33.0352 21.1801 33.0527 21.1896C33.0703 21.1991 33.0876 21.2089 33.1049 21.219C33.122 21.2292 33.139 21.2397 33.1557 21.2505C33.1725 21.2612 33.189 21.2723 33.2053 21.2838C33.2217 21.2952 33.2377 21.3069 33.2535 21.3189C33.2694 21.3309 33.285 21.3433 33.3003 21.3559C33.3157 21.3685 33.3308 21.3814 33.3456 21.3946C33.3604 21.4078 33.3749 21.4212 33.3892 21.435C33.4035 21.4487 33.4175 21.4627 33.4313 21.477C33.445 21.4912 33.4584 21.5058 33.4715 21.5205C33.4846 21.5353 33.4975 21.5504 33.51 21.5656C33.5225 21.5808 33.5348 21.5963 33.5466 21.612C33.5586 21.6278 33.5702 21.6437 33.5814 21.6599C33.5927 21.6761 33.6036 21.6924 33.6142 21.709C33.6248 21.7256 33.6351 21.7424 33.6451 21.7593C33.655 21.7763 33.6645 21.7934 33.6738 21.8107C33.683 21.828 33.6919 21.8456 33.7004 21.8633C33.709 21.8809 33.7172 21.8987 33.725 21.9167C33.7329 21.9346 33.7403 21.9528 33.7474 21.971C33.7545 21.9893 33.7612 22.0077 33.7676 22.0262L38.9208 37.0262C38.9304 37.0543 38.9392 37.0825 38.947 37.1111C38.955 37.1396 38.962 37.1684 38.9682 37.1973C38.9743 37.2263 38.9796 37.2554 38.984 37.2847C38.9884 37.3139 38.9918 37.3433 38.9944 37.3727C38.997 37.4022 38.9987 37.4317 38.9995 37.4612C39.0002 37.4908 39.0001 37.5203 38.9991 37.5499C38.9982 37.5795 38.9962 37.6089 38.9934 37.6384C38.9906 37.6678 38.9869 37.6972 38.9824 37.7264C38.9777 37.7556 38.9723 37.7847 38.9659 37.8136C38.9595 37.8425 38.9523 37.8712 38.9441 37.8997C38.936 37.9282 38.927 37.9564 38.9172 37.9844C38.9074 38.0124 38.8967 38.0401 38.8852 38.0674C38.8737 38.0948 38.8613 38.1218 38.8481 38.1485C38.835 38.1751 38.821 38.2014 38.8062 38.2273C38.7915 38.2531 38.7759 38.2785 38.7596 38.3035C38.7433 38.3285 38.7262 38.3529 38.7084 38.3769C38.6906 38.4009 38.6721 38.4244 38.6528 38.4473C38.6336 38.4702 38.6137 38.4926 38.593 38.5144C38.5725 38.5362 38.5512 38.5573 38.5293 38.5779C38.5074 38.5985 38.485 38.6184 38.4618 38.6377C38.4387 38.6569 38.415 38.6755 38.3908 38.6934C38.3666 38.7113 38.3418 38.7285 38.3165 38.745C38.2912 38.7615 38.2655 38.7773 38.2392 38.7923C38.2129 38.8073 38.1863 38.8216 38.1591 38.835C38.132 38.8485 38.1045 38.8613 38.0766 38.8732C38.0487 38.8851 38.0205 38.8962 37.9919 38.9064C37.9633 38.9167 37.9345 38.9262 37.9053 38.9348C37.8762 38.9435 37.8468 38.9512 37.8172 38.9582C37.7876 38.9651 37.7578 38.9712 37.7278 38.9765C37.6978 38.9817 37.6676 38.9861 37.6374 38.9896C37.6071 38.9931 37.5768 38.9957 37.5464 38.9975C37.516 38.9992 37.4855 39.0001 37.4551 39.0002L1.54493 39.0002C1.51446 39.0001 1.48402 38.9992 1.45362 38.9975C1.42318 38.9957 1.39283 38.9931 1.36259 38.9896C1.33234 38.9861 1.30221 38.9817 1.27219 38.9765C1.2422 38.9712 1.2124 38.9651 1.1828 38.9582C1.15317 38.9512 1.12378 38.9435 1.09463 38.9348C1.06551 38.9262 1.03666 38.9167 1.00809 38.9064C0.979519 38.8962 0.951288 38.8851 0.923395 38.8732C0.895497 38.8613 0.867991 38.8485 0.840871 38.835C0.813746 38.8216 0.787061 38.8073 0.760811 38.7923C0.734556 38.7773 0.708789 38.7615 0.683505 38.745C0.658216 38.7285 0.633449 38.7113 0.609195 38.6934C0.584969 38.6755 0.561294 38.6569 0.53817 38.6377C0.515075 38.6184 0.492574 38.5985 0.470671 38.5779C0.448799 38.5573 0.427557 38.5362 0.406942 38.5144C0.386327 38.4926 0.366404 38.4702 0.347174 38.4473C0.327945 38.4244 0.309424 38.4009 0.291611 38.3769C0.273798 38.3529 0.256727 38.3285 0.240396 38.3035C0.224065 38.2785 0.208523 38.2531 0.193771 38.2273C0.178986 38.2014 0.165007 38.1751 0.151832 38.1485C0.13869 38.1218 0.126354 38.0948 0.114822 38.0674C0.10329 38.0401 0.0926125 38.0124 0.0827883 37.9844C0.0729318 37.9564 0.063945 37.9282 0.0558279 37.8997C0.0477109 37.8712 0.0404793 37.8425 0.0341338 37.8136C0.0277562 37.7847 0.0222641 37.7556 0.0176582 37.7264C0.0130843 37.6972 0.00938001 37.6678 0.0065453 37.6384C0.003743 37.6089 0.00184238 37.5795 0.000844147 37.5499C-0.000154453 37.5203 -0.000267252 37.4908 0.00050575 37.4612C0.00131119 37.4317 0.00300207 37.4022 0.00557912 37.3727C0.00815577 37.3433 0.0116345 37.3139 0.0160152 37.2847C0.0203959 37.2554 0.0256625 37.2263 0.0318148 37.1973C0.0379671 37.1684 0.0450048 37.1396 0.0529289 37.1111C0.0608204 37.0825 0.0695816 37.0543 0.0792129 37.0262L5.2324 22.0262C5.23878 22.0077 5.24549 21.9893 5.2526 21.971C5.2597 21.9527 5.26714 21.9346 5.27497 21.9166C5.28284 21.8986 5.29106 21.8808 5.29956 21.8631C5.30811 21.8454 5.317 21.8279 5.32628 21.8106C5.33556 21.7932 5.34512 21.7761 5.35508 21.7591C5.36503 21.7421 5.37527 21.7253 5.3859 21.7087C5.39653 21.6922 5.4075 21.6758 5.41876 21.6596C5.43006 21.6435 5.44166 21.6275 5.45354 21.6118C5.46548 21.596 5.4777 21.5805 5.49026 21.5653C5.50283 21.55 5.51563 21.5349 5.52877 21.5202C5.54191 21.5054 5.55539 21.4909 5.56912 21.4766C5.58284 21.4623 5.59685 21.4483 5.61115 21.4346C5.62545 21.4208 5.64004 21.4073 5.65488 21.3942C5.66971 21.381 5.68479 21.3681 5.70015 21.3555C5.71551 21.3428 5.73112 21.3305 5.74697 21.3185C5.76286 21.3065 5.77895 21.2948 5.79528 21.2833C5.81162 21.2719 5.82814 21.2608 5.84491 21.25C5.86172 21.2392 5.87868 21.2288 5.89588 21.2186C5.91308 21.2085 5.93047 21.1987 5.94806 21.1891C5.96565 21.1797 5.98343 21.1705 6.0014 21.1617C6.01938 21.1529 6.03749 21.1444 6.05576 21.1363C6.07407 21.1282 6.09253 21.1204 6.11113 21.113C6.12978 21.1055 6.14852 21.0984 6.16742 21.0917C6.18636 21.085 6.20534 21.0787 6.22448 21.0727C6.24366 21.0667 6.26294 21.061 6.28231 21.0558C6.30169 21.0505 6.32116 21.0456 6.34073 21.0411C6.36034 21.0365 6.38001 21.0324 6.39972 21.0286C6.41948 21.0248 6.43929 21.0214 6.45915 21.0184C6.47906 21.0153 6.49896 21.0127 6.51896 21.0104C6.53897 21.0082 6.55902 21.0063 6.57902 21.0047C6.59912 21.0032 6.61922 21.0021 6.63932 21.0013C6.65942 21.0006 6.67957 21.0002 6.69967 21.0002L32.3003 21.0002L32.3019 21.0002ZM31.1856 24.0002L7.81287 24.0002L3.69095 36.0002L35.3075 36.0002L31.1856 24.0002ZM22.3479 25.5002C26.844 25.5002 27.3358 26.9057 27.2306 28.5002C27.1254 30.0947 25.0444 31.5002 22.3479 31.5002L16.0212 31.5002L15.2497 34.5002L12.1575 34.5002L14.4766 25.5002L22.3495 25.5002L22.3479 25.5002ZM23.1334 27.3752L17.0834 27.3752L16.5995 29.2502L22.5922 29.2502C23.458 29.2502 24.4568 28.9277 24.5295 28.1777C24.5975 27.4787 23.8616 27.3857 23.1334 27.3767L23.1334 27.3752ZM28.0036 0.00018847C28.5571 0.00018847 29.2591 0.336188 29.5497 0.750188L31.286 4.50019L34.6303 4.50019C34.8127 4.50019 34.9612 4.64419 34.9612 4.82119L34.9612 6.12919C34.9612 6.13795 34.9609 6.14667 34.9601 6.15539C34.9594 6.16416 34.9583 6.17283 34.9569 6.18145C34.9554 6.19008 34.9536 6.19866 34.9515 6.20714C34.9493 6.21562 34.9468 6.22406 34.9439 6.23236C34.941 6.24066 34.9378 6.24881 34.9342 6.25683C34.9306 6.26489 34.9267 6.27277 34.9225 6.2805C34.9183 6.28823 34.9137 6.29578 34.9088 6.30314C34.904 6.3105 34.8988 6.31767 34.8934 6.32466C34.8879 6.33159 34.8821 6.3383 34.876 6.34481C34.87 6.35133 34.8637 6.35756 34.8571 6.36356C34.8506 6.36956 34.8437 6.37528 34.8367 6.38077C34.8297 6.38625 34.8224 6.39141 34.8149 6.39628C34.8074 6.40116 34.7997 6.40575 34.7918 6.41002C34.784 6.41428 34.776 6.41827 34.7677 6.42188C34.7595 6.42548 34.7512 6.42881 34.7427 6.43181C34.7342 6.43477 34.7256 6.43739 34.7169 6.43969L32.4595 7.03669L33.027 8.26219C33.2837 8.81419 33.415 9.41269 33.415 10.0172L33.415 19.5002L31.4824 19.5002L30.5439 18.2852C30.5354 18.2742 30.5265 18.2634 30.5173 18.2528C30.5081 18.2423 30.4986 18.232 30.4888 18.222C30.479 18.2121 30.4689 18.2024 30.4586 18.1929C30.4482 18.1835 30.4376 18.1744 30.4266 18.1655C30.4157 18.1567 30.4045 18.1482 30.393 18.14C30.3816 18.1318 30.3699 18.1239 30.358 18.1164C30.3461 18.1088 30.334 18.1016 30.3217 18.0948C30.3093 18.0879 30.2968 18.0814 30.2841 18.0752C30.2713 18.0691 30.2584 18.0633 30.2454 18.0578C30.2323 18.0524 30.2191 18.0473 30.2057 18.0427C30.1923 18.038 30.1788 18.0337 30.1651 18.0297C30.1516 18.0258 30.1378 18.0223 30.1239 18.0191C30.1101 18.016 30.0962 18.0132 30.0821 18.0108C30.0681 18.0084 30.0541 18.0065 30.04 18.0049C30.0259 18.0033 30.0116 18.0022 29.9974 18.0014C29.9833 18.0006 29.9691 18.0002 29.9548 18.0002L9.04513 18.0002C8.81321 18.0002 8.59675 18.1052 8.4576 18.2852L7.51756 19.5002L5.58492 19.5002L5.63594 9.89269C5.63903 9.27169 5.78127 8.65969 6.05339 8.09719L6.54042 7.08319L4.29084 6.54769C4.28192 6.54558 4.27311 6.54309 4.26441 6.54023C4.25571 6.53742 4.24714 6.53423 4.23871 6.53072C4.23027 6.5272 4.222 6.52331 4.21392 6.51914C4.20583 6.51497 4.19793 6.51042 4.1902 6.50559C4.1825 6.50077 4.17501 6.49566 4.16773 6.49022C4.16045 6.48478 4.15343 6.47906 4.14666 6.47306C4.13987 6.46702 4.13336 6.46078 4.12714 6.45427C4.12089 6.44775 4.11493 6.44095 4.10927 6.43392C4.10359 6.42694 4.09825 6.41972 4.09323 6.41227C4.08817 6.40481 4.08345 6.39717 4.07907 6.38934C4.07469 6.38152 4.07064 6.37355 4.06694 6.36539C4.06324 6.35723 4.05989 6.34894 4.05689 6.34055C4.0539 6.33216 4.05127 6.32363 4.04902 6.31495C4.04676 6.30633 4.04488 6.29761 4.04336 6.28884C4.04185 6.28008 4.04071 6.27122 4.03993 6.26236C4.03919 6.2535 4.03882 6.24459 4.03882 6.23569L4.03882 4.82119C4.03882 4.64419 4.18725 4.50019 4.36969 4.50019L7.78659 4.50019L9.63729 0.666188C9.64691 0.653156 9.65671 0.640284 9.66667 0.627563C9.67667 0.614812 9.68686 0.602222 9.6972 0.589781C9.70759 0.577345 9.71817 0.565064 9.7289 0.552938C9.73967 0.540783 9.75059 0.528797 9.76171 0.516984C9.77287 0.505205 9.78417 0.493566 9.79567 0.482062C9.80717 0.470597 9.81886 0.459298 9.8307 0.448173C9.84254 0.437017 9.85457 0.426048 9.86674 0.415267C9.87892 0.404485 9.89129 0.393876 9.9038 0.383438C9.91632 0.373032 9.92898 0.362798 9.94183 0.352735C9.95468 0.342704 9.96763 0.332845 9.98077 0.323157C9.99391 0.313501 10.0072 0.304032 10.0206 0.294751C10.0341 0.28547 10.0477 0.276376 10.0614 0.26747C10.0751 0.258595 10.089 0.249923 10.103 0.241454C10.117 0.232954 10.1311 0.224673 10.1453 0.21661C10.1596 0.208548 10.1739 0.200704 10.1884 0.193079C10.2029 0.185429 10.2176 0.177997 10.2323 0.170781C10.247 0.163565 10.2618 0.156567 10.2768 0.149785C10.2917 0.143004 10.3068 0.136443 10.3219 0.130103C10.3371 0.123762 10.3523 0.117645 10.3676 0.111751C10.383 0.105857 10.3984 0.10019 10.4139 0.0947494C10.4294 0.0893086 10.445 0.0840947 10.4606 0.0791072C10.4763 0.0741225 10.4921 0.0693698 10.5079 0.0648478C10.5237 0.060323 10.5396 0.0560306 10.5556 0.0519712C10.5715 0.0479152 10.5876 0.0440916 10.6036 0.040501C10.6197 0.0369136 10.6358 0.0335605 10.652 0.0304417C10.6682 0.027326 10.6844 0.0244478 10.7007 0.0218071C10.717 0.0191667 10.7332 0.0167634 10.7496 0.014598C10.766 0.0124354 10.7823 0.0105118 10.7987 0.00882769C10.8151 0.00714328 10.8316 0.00569953 10.848 0.00449646C10.8645 0.00329304 10.8809 0.00233209 10.8974 0.00161362C10.9139 0.000891567 10.9304 0.000411987 10.9469 0.000174522C10.9634 -6.29423e-05 10.9799 -5.82933e-05 10.9963 0.00018847L28.0036 0.00018847ZM9.45021 10.7912C9.439 10.7912 9.42784 10.7914 9.41663 10.7919C9.40547 10.7924 9.39431 10.7931 9.38315 10.794C9.37199 10.7949 9.36087 10.7961 9.34976 10.7975C9.33865 10.7989 9.32758 10.8006 9.31657 10.8024C9.30555 10.8043 9.29454 10.8064 9.28362 10.8088C9.2727 10.8111 9.26178 10.8137 9.25095 10.8165C9.24018 10.8193 9.22945 10.8223 9.21873 10.8255C9.20805 10.8288 9.19742 10.8322 9.18689 10.836C9.1764 10.8397 9.16597 10.8435 9.15558 10.8477C9.14524 10.8518 9.135 10.8562 9.1248 10.8608C9.11465 10.8653 9.1046 10.8701 9.09465 10.8751C9.08475 10.8801 9.07494 10.8853 9.06518 10.8907C9.05552 10.8961 9.0459 10.9017 9.03643 10.9075C9.02696 10.9133 9.01764 10.9193 9.00846 10.9255C8.99928 10.9318 8.99024 10.9381 8.9813 10.9447C8.97241 10.9513 8.96367 10.9581 8.95507 10.965C8.94647 10.972 8.93806 10.9791 8.92975 10.9864C8.92144 10.9937 8.91332 11.0012 8.9054 11.0089C8.89747 11.0165 8.8897 11.0243 8.88206 11.0323C8.87448 11.0403 8.86708 11.0484 8.85984 11.0567C8.85259 11.065 8.84558 11.0735 8.83872 11.082C8.83186 11.0906 8.82519 11.0993 8.81872 11.1082C8.81224 11.1171 8.80601 11.1261 8.79992 11.1352C8.79388 11.1443 8.78804 11.1536 8.78238 11.163C8.77678 11.1724 8.77132 11.1819 8.76605 11.1915C8.76084 11.2011 8.75586 11.2108 8.75108 11.2206C8.74629 11.2305 8.7417 11.2404 8.73735 11.2504C8.73305 11.2604 8.72895 11.2705 8.72503 11.2807C8.72117 11.2908 8.7175 11.3011 8.71407 11.3115C8.71064 11.3218 8.70745 11.3322 8.70445 11.3427C8.7015 11.3531 8.6988 11.3637 8.69629 11.3743C8.69382 11.3849 8.69155 11.3955 8.68952 11.4062L8.67715 11.5412L8.67715 11.9162C8.67715 12.2192 8.70498 12.3302 8.7591 12.4442C8.77234 12.4721 8.78751 12.4991 8.80456 12.525C8.82162 12.5509 8.84036 12.5756 8.86085 12.5991C8.88138 12.6225 8.90347 12.6445 8.92704 12.6651C8.95067 12.6856 8.9756 12.7045 9.00184 12.7217C9.08842 12.7787 9.17346 12.8192 9.36208 12.8567L9.52597 12.8867L12.5533 13.3772C12.5638 13.3789 12.5742 13.3803 12.5848 13.3815C12.5953 13.3826 12.6059 13.3836 12.6165 13.3843C12.627 13.385 12.6376 13.3854 12.6483 13.3855C12.6589 13.3857 12.6695 13.3857 12.6801 13.3853C12.6907 13.385 12.7013 13.3845 12.7118 13.3837C12.7224 13.3829 12.733 13.3818 12.7434 13.3805C12.754 13.3792 12.7645 13.3776 12.7749 13.3758C12.7853 13.374 12.7957 13.3719 12.8061 13.3696C12.8164 13.3673 12.8267 13.3648 12.8369 13.362C12.8471 13.3592 12.8573 13.3562 12.8673 13.353C12.8774 13.3497 12.8874 13.3462 12.8972 13.3425C12.9071 13.3387 12.9169 13.3348 12.9266 13.3306C12.9363 13.3264 12.9459 13.322 12.9554 13.3174C12.9648 13.3127 12.9742 13.3079 12.9834 13.3028C12.9926 13.2977 13.0017 13.2924 13.0107 13.2869C13.0197 13.2814 13.0285 13.2757 13.0371 13.2698C13.0458 13.2638 13.0543 13.2577 13.0627 13.2514C13.0711 13.2451 13.0793 13.2386 13.0873 13.2319C13.0953 13.2252 13.1032 13.2182 13.1109 13.2112C13.1186 13.2041 13.1261 13.1969 13.1335 13.1894C13.1408 13.182 13.1479 13.1744 13.1549 13.1666C13.1619 13.1588 13.1686 13.1509 13.1751 13.1428C13.1817 13.1347 13.1881 13.1265 13.1942 13.1181C13.2004 13.1097 13.2063 13.1012 13.212 13.0925C13.2177 13.0838 13.2232 13.075 13.2285 13.0661C13.2338 13.0572 13.2388 13.0481 13.2437 13.039C13.2485 13.0298 13.2531 13.0205 13.2574 13.0111C13.2618 13.0018 13.2659 12.9923 13.2698 12.9827C13.2737 12.9731 13.2773 12.9635 13.2807 12.9537C13.2841 12.944 13.2873 12.9342 13.2902 12.9243C13.2931 12.9144 13.2958 12.9044 13.2982 12.8944C13.3006 12.8844 13.3028 12.8743 13.3047 12.8642L13.3155 12.7502L13.3155 12.6677C13.3175 12.6321 13.3177 12.5964 13.3159 12.5608C13.3142 12.5252 13.3106 12.4897 13.3052 12.4545C13.2997 12.4192 13.2924 12.3843 13.2833 12.3497C13.2742 12.3152 13.2633 12.2812 13.2506 12.2477C13.2401 12.2219 13.228 12.1968 13.2143 12.1725C13.2006 12.1482 13.1854 12.1248 13.1687 12.1023C13.1521 12.0797 13.134 12.0583 13.1146 12.038C13.0951 12.0177 13.0745 11.9985 13.0527 11.9807C13.0142 11.9496 12.9732 11.9218 12.9299 11.8974C12.8866 11.873 12.8414 11.8523 12.7945 11.8352L12.663 11.7902L9.6945 10.8302C9.65517 10.8174 9.61497 10.8077 9.57395 10.8011C9.53298 10.7946 9.49176 10.7913 9.45021 10.7912ZM29.4416 10.7987L29.3055 10.8287L26.337 11.7887C26.3015 11.7981 26.2667 11.8092 26.2325 11.822C26.1982 11.8348 26.1648 11.8493 26.132 11.8654C26.0993 11.8815 26.0675 11.8992 26.0366 11.9185C26.0058 11.9377 25.976 11.9585 25.9473 11.9807C25.9254 11.9985 25.9048 12.0177 25.8854 12.038C25.866 12.0583 25.8479 12.0797 25.8313 12.1023C25.8146 12.1248 25.7994 12.1482 25.7857 12.1725C25.772 12.1968 25.7599 12.2219 25.7494 12.2477C25.7309 12.2932 25.7164 12.3398 25.7061 12.3877C25.6957 12.4355 25.6895 12.4838 25.6876 12.5327L25.6844 12.6677L25.6844 12.7502C25.6844 12.7605 25.6847 12.7708 25.6852 12.7811C25.6858 12.7913 25.6865 12.8016 25.6876 12.8119C25.6886 12.8221 25.6899 12.8324 25.6914 12.8425C25.6929 12.8527 25.6947 12.8629 25.6968 12.873C25.6988 12.8831 25.7011 12.8932 25.7037 12.9031C25.7062 12.9131 25.709 12.9231 25.7121 12.933C25.7151 12.9428 25.7184 12.9526 25.7219 12.9623C25.7255 12.972 25.7293 12.9817 25.7333 12.9912C25.7374 13.0007 25.7416 13.0102 25.7461 13.0195C25.7506 13.0288 25.7553 13.038 25.7603 13.0471C25.7652 13.0562 25.7704 13.0652 25.7758 13.0741C25.7812 13.083 25.7868 13.0917 25.7927 13.1003C25.7985 13.1089 25.8046 13.1174 25.8108 13.1257C25.8171 13.134 25.8236 13.1422 25.8303 13.1502C25.8369 13.1582 25.8438 13.166 25.8508 13.1737C25.858 13.1814 25.8652 13.1889 25.8726 13.1962C25.88 13.2036 25.8877 13.2107 25.8955 13.2177C25.9033 13.2247 25.9113 13.2315 25.9194 13.2381C25.9276 13.2447 25.9359 13.2511 25.9443 13.2574C25.9528 13.2636 25.9614 13.2696 25.9702 13.2754C25.9789 13.2812 25.9879 13.2868 25.9969 13.2922C26.0059 13.2976 26.0151 13.3027 26.0245 13.3077C26.0337 13.3127 26.0431 13.3174 26.0527 13.3219C26.0622 13.3265 26.0719 13.3307 26.0816 13.3348C26.0914 13.3389 26.1012 13.3427 26.1112 13.3463C26.1212 13.3499 26.1312 13.3532 26.1413 13.3564C26.1514 13.3595 26.1616 13.3623 26.1719 13.365C26.1821 13.3677 26.1924 13.3701 26.2028 13.3722C26.2132 13.3744 26.2237 13.3763 26.2341 13.3779C26.2446 13.3796 26.2551 13.381 26.2656 13.3822C26.2762 13.3833 26.2868 13.3843 26.2973 13.3849C26.308 13.3856 26.3186 13.386 26.3292 13.3862L26.4467 13.3772L29.474 12.8867C29.7832 12.8372 29.8915 12.7922 29.9982 12.7217C30.0244 12.7045 30.0493 12.6856 30.0729 12.6651C30.0965 12.6445 30.1186 12.6225 30.1391 12.5991C30.1596 12.5756 30.1784 12.5509 30.1955 12.525C30.2125 12.4991 30.2277 12.4721 30.2409 12.4442C30.254 12.4154 30.2656 12.386 30.2755 12.3559C30.2854 12.3259 30.2936 12.2954 30.3 12.2645C30.3066 12.2336 30.3114 12.2025 30.3144 12.1711C30.3174 12.1397 30.3186 12.1082 30.3182 12.0767L30.3228 11.9162L30.3228 11.5412C30.3228 11.5278 30.3225 11.5145 30.3217 11.5011C30.321 11.4878 30.3199 11.4744 30.3184 11.4611C30.3169 11.4479 30.3151 11.4346 30.3128 11.4214C30.3107 11.4082 30.3081 11.3951 30.3052 11.382C30.3023 11.3689 30.299 11.3559 30.2954 11.343C30.2917 11.3302 30.2877 11.3174 30.2833 11.3047C30.279 11.292 30.2743 11.2794 30.2692 11.267C30.2642 11.2545 30.2588 11.2422 30.2531 11.2301C30.2474 11.2179 30.2414 11.2059 30.235 11.194C30.2286 11.1822 30.2219 11.1705 30.2149 11.159C30.2078 11.1475 30.2005 11.1362 30.1928 11.1251C30.1852 11.114 30.1772 11.103 30.169 11.0923C30.1607 11.0816 30.1522 11.0711 30.1434 11.0609C30.1346 11.0506 30.1254 11.0406 30.116 11.0308C30.1066 11.021 30.097 11.0114 30.0871 11.0021C30.0772 10.9928 30.0671 10.9838 30.0567 10.975C30.0462 10.9663 30.0356 10.9578 30.0247 10.9496C30.0139 10.9414 30.0028 10.9334 29.9914 10.9258C29.9801 10.9181 29.9686 10.9108 29.9569 10.9037C29.9452 10.8967 29.9333 10.89 29.9212 10.8835C29.9091 10.8771 29.8968 10.871 29.8844 10.8652C29.872 10.8594 29.8594 10.854 29.8467 10.8488C29.834 10.8437 29.8211 10.8389 29.8082 10.8345C29.7951 10.83 29.782 10.8258 29.7688 10.822C29.7556 10.8182 29.7423 10.8148 29.7289 10.8117C29.7155 10.8086 29.702 10.8059 29.6884 10.8035C29.6749 10.8011 29.6613 10.799 29.6476 10.7973C29.6339 10.7956 29.6202 10.7943 29.6065 10.7933C29.5927 10.7924 29.579 10.7917 29.5652 10.7915C29.5514 10.7912 29.5376 10.7913 29.5238 10.7917C29.5101 10.7922 29.4963 10.793 29.4826 10.7941C29.4689 10.7953 29.4552 10.7968 29.4416 10.7987ZM27.1007 2.25019L11.8993 2.25019C11.59 2.25019 11.3117 2.43769 11.2066 2.71969L9.88312 6.25069C9.87897 6.26175 9.87539 6.273 9.8724 6.28439C9.8694 6.29578 9.86699 6.30731 9.86515 6.31894C9.86336 6.33061 9.86215 6.34228 9.86153 6.35405C9.86095 6.36581 9.86095 6.37753 9.86153 6.3893C9.86211 6.40106 9.86331 6.41273 9.8651 6.42441C9.86694 6.43603 9.86931 6.44756 9.87225 6.45895C9.87525 6.47034 9.87882 6.48159 9.88293 6.49266C9.88709 6.50377 9.89182 6.51459 9.89704 6.52519C10.4737 7.67569 13.6758 8.25019 19.5 8.25019C25.3242 8.25019 28.5262 7.67569 29.103 6.52519C29.1082 6.51455 29.1129 6.50372 29.117 6.49266C29.1212 6.48159 29.1247 6.47034 29.1278 6.45895C29.1307 6.44756 29.1331 6.43603 29.1349 6.42441C29.1367 6.41273 29.1379 6.40106 29.1385 6.3893C29.1391 6.37753 29.1391 6.36581 29.1384 6.35405C29.1378 6.34228 29.1366 6.33061 29.1348 6.31894C29.133 6.30731 29.1306 6.29578 29.1276 6.28439C29.1246 6.273 29.121 6.26175 29.1168 6.25069L27.7934 2.71969C27.7902 2.71116 27.7868 2.70267 27.7832 2.69423C27.7797 2.68583 27.776 2.67747 27.7721 2.66916C27.7682 2.66088 27.7642 2.65267 27.76 2.64455C27.7558 2.63642 27.7515 2.62838 27.747 2.62041C27.7424 2.61244 27.7378 2.60455 27.7329 2.59673C27.7281 2.58892 27.7231 2.58122 27.718 2.57363C27.7129 2.566 27.7076 2.55848 27.7022 2.55108C27.6968 2.54364 27.6912 2.53631 27.6854 2.52909C27.6798 2.52191 27.6739 2.51482 27.6679 2.50781C27.6619 2.50081 27.6558 2.49392 27.6496 2.48714C27.6433 2.48039 27.6369 2.47375 27.6303 2.46722C27.6238 2.46069 27.6171 2.45428 27.6103 2.448C27.6036 2.44169 27.5967 2.43553 27.5897 2.42953C27.5826 2.4235 27.5755 2.4176 27.5683 2.41181C27.561 2.40607 27.5537 2.40044 27.5461 2.39494C27.5387 2.38944 27.5311 2.3841 27.5234 2.37891C27.5157 2.37369 27.5079 2.36861 27.5001 2.36367C27.4922 2.35877 27.4842 2.354 27.4761 2.34938C27.468 2.34475 27.4599 2.34028 27.4517 2.33597C27.4434 2.33163 27.435 2.32746 27.4266 2.32345C27.4182 2.31942 27.4098 2.31556 27.4012 2.31188C27.3926 2.30819 27.384 2.30466 27.3753 2.30128C27.3666 2.29788 27.3578 2.29466 27.349 2.29163C27.3401 2.28856 27.3313 2.28567 27.3223 2.28295C27.3133 2.28023 27.3043 2.27767 27.2953 2.27527C27.2862 2.27289 27.2771 2.27067 27.2681 2.26861C27.2589 2.26655 27.2497 2.26467 27.2405 2.26298C27.2313 2.26126 27.2221 2.25972 27.2128 2.25834C27.2035 2.25697 27.1942 2.25577 27.1849 2.25473C27.1756 2.2537 27.1663 2.25286 27.1569 2.2522C27.1476 2.25152 27.1382 2.251 27.1288 2.25066C27.1195 2.25034 27.1101 2.25019 27.1007 2.25019Z"   fill="#F5ED62" >
</path>
</svg>
