<?xml version="1.0" standalone="no"?><!DOCTYPE svg PUBLIC "-//W3C//DTD SVG 1.1//EN" "http://www.w3.org/Graphics/SVG/1.1/DTD/svg11.dtd"><svg t="1744016251560" class="icon" viewBox="0 0 1024 1024" version="1.1" xmlns="http://www.w3.org/2000/svg" p-id="1481" xmlns:xlink="http://www.w3.org/1999/xlink" width="200" height="200"><path d="M377.088 27.0798m104.33059 60.235294l417.322359 240.941176q104.33059 60.235294 44.095296 164.565884l-240.941177 417.32236q-60.235294 104.33059-164.565884 44.095295l-417.322359-240.941176q-104.33059-60.235294-44.095296-164.565884l240.941177-417.322359q60.235294-104.33059 164.565884-44.095296Z" fill="#CCEDFF" p-id="1482"></path><path d="M0 240.941176m120.470588 0l481.882353 0q120.470588 0 120.470588 120.470589l0 481.882353q0 120.470588-120.470588 120.470588l-481.882353 0q-120.470588 0-120.470588-120.470588l0-481.882353q0-120.470588 120.470588-120.470589Z" fill="#169BFA" p-id="1483"></path><path d="M537.088 426.676706v225.882353l-125.470118 125.500235h-225.882353V426.676706h351.352471zM361.411765 627.471059H261.029647V677.647059H361.411765v-50.176z m100.382117-100.412235H261.029647v50.206117h200.764235V527.058824z" fill="#FFFFFF" p-id="1484"></path></svg>